<?xml version="1.0"?>
<svg xmlns="http://www.w3.org/2000/svg" height="512px" viewBox="-53 0 512 512" width="512px"><path d="m151.644531 315.070312h36.386719v-33.734374h-80.558594c5.3125 19.535156 23.15625 33.734374 44.171875 33.734374zm0 0" fill="#444444"/><path d="m218.03125 251.332031h83.289062l1.949219-33.734375h-85.238281zm0 0" fill="#444444"/><path d="m298.589844 281.332031h-80.558594v33.738281h36.382812c21.015626 0 38.859376-14.199218 44.175782-33.738281zm0 0" fill="#444444"/><path d="m69.796875 154.203125 4.074219 33.394531h258.207031l4.074219-33.394531zm0 0" fill="#444444"/><path d="m188.03125 217.597656h-85.238281l1.949219 33.734375h83.289062zm0 0" fill="#444444"/><path d="m79.667969 417v-26.84375h30v121.84375h186.726562v-121.84375h30v26.84375h79.667969v-19.851562c0-53.023438-31.230469-98.878907-76.253906-120.164063-3.910156 38.441406-36.398438 68.085937-75.390625 68.085937h-102.773438c-38.996093 0-71.480469-29.644531-75.390625-68.085937-45.027344 21.285156-76.253906 67.144531-76.253906 120.164063v19.851562zm0 0" fill="#444444"/><path d="m0 447h79.667969v65h-79.667969zm0 0" fill="#444444"/><path d="m326.394531 447h79.664063v65h-79.664063zm0 0" fill="#444444"/><path d="m341.015625 124.203125c-7.292969-69.695313-66.390625-124.203125-137.984375-124.203125s-130.695312 54.507812-137.984375 124.203125zm-152.984375-47.332031h30v30.332031h-30zm0 0" fill="#444444"/></svg>
